<svg width="16" height="16" viewBox="0 0 16 16" fill="none" xmlns="http://www.w3.org/2000/svg">
<g clip-path="url(#clip0_1_727)">
<path d="M3.33333 4.6665H4C4.35362 4.6665 4.69276 4.52603 4.94281 4.27598C5.19286 4.02593 5.33333 3.68679 5.33333 3.33317C5.33333 3.15636 5.40357 2.98679 5.5286 2.86177C5.65362 2.73674 5.82319 2.6665 6 2.6665H10C10.1768 2.6665 10.3464 2.73674 10.4714 2.86177C10.5964 2.98679 10.6667 3.15636 10.6667 3.33317C10.6667 3.68679 10.8071 4.02593 11.0572 4.27598C11.3072 4.52603 11.6464 4.6665 12 4.6665H12.6667C13.0203 4.6665 13.3594 4.80698 13.6095 5.05703C13.8595 5.30708 14 5.64622 14 5.99984V11.9998C14 12.3535 13.8595 12.6926 13.6095 12.9426C13.3594 13.1927 13.0203 13.3332 12.6667 13.3332H3.33333C2.97971 13.3332 2.64057 13.1927 2.39052 12.9426C2.14048 12.6926 2 12.3535 2 11.9998V5.99984C2 5.64622 2.14048 5.30708 2.39052 5.05703C2.64057 4.80698 2.97971 4.6665 3.33333 4.6665Z" stroke="white" stroke-width="1.5" stroke-linecap="round" stroke-linejoin="round"/>
<path d="M8 10.6665C9.10457 10.6665 10 9.77107 10 8.6665C10 7.56193 9.10457 6.6665 8 6.6665C6.89543 6.6665 6 7.56193 6 8.6665C6 9.77107 6.89543 10.6665 8 10.6665Z" stroke="white" stroke-width="1.5" stroke-linecap="round" stroke-linejoin="round"/>
</g>
<defs>
<clipPath id="clip0_1_727">
<rect width="16" height="16" fill="white"/>
</clipPath>
</defs>
</svg>
