<svg width="181" height="345" viewBox="0 0 181 345" fill="none" xmlns="http://www.w3.org/2000/svg">
<g clip-path="url(#clip0_1_506)">
<path d="M97.5001 13.5722L90.0001 21.0002L82.5001 13.5722M82.5001 13.5722C82.0054 13.0908 81.6157 12.5122 81.3556 11.8728C81.0955 11.2334 80.9706 10.5471 80.9888 9.85711C81.007 9.16709 81.1678 8.48831 81.4612 7.86351C81.7546 7.23871 82.1742 6.68143 82.6935 6.22676C83.2129 5.77208 83.8208 5.42987 84.4789 5.22166C85.137 5.01345 85.8311 4.94376 86.5174 5.01698C87.2038 5.0902 87.8676 5.30473 88.4669 5.64708C89.0663 5.98943 89.5883 6.45218 90.0001 7.00618C90.4136 6.4562 90.9362 5.9975 91.5352 5.65878C92.1341 5.32007 92.7966 5.10863 93.481 5.0377C94.1654 4.96677 94.8571 5.03787 95.5128 5.24657C96.1685 5.45526 96.7741 5.79705 97.2916 6.25054C97.8091 6.70403 98.2275 7.25946 98.5205 7.88207C98.8135 8.50468 98.9748 9.18106 98.9944 9.86889C99.0139 10.5567 98.8913 11.2412 98.6342 11.8794C98.3771 12.5177 97.991 13.096 97.5001 13.5782" fill="currentColor"/>
</g>
<path fill-rule="evenodd" clip-rule="evenodd" d="M90.5 47C90.2239 47 90 47.2239 90 47.5V82C90 84.2091 88.2091 86 86 86H1V86C0.447715 86 -2.41411e-08 86.4477 0 87L6.62228e-06 238.5C6.63435e-06 238.776 0.223864 239 0.500007 239V239C0.776149 239 1.00001 238.776 1.00001 238.5L1 91C1 88.7909 2.79086 87 5 87H176C178.209 87 180 88.7909 180 91V120.5C180 120.776 180.224 121 180.5 121V121C180.776 121 181 120.776 181 120.5V87V87C181 86.4477 180.552 86 180 86V86H95C92.7909 86 91 84.2091 91 82V47.5C91 47.2239 90.7761 47 90.5 47V47Z" fill="currentColor"/>
<path fill-rule="evenodd" clip-rule="evenodd" d="M91 284C91 281.791 92.7909 280 95 280L148.5 280C148.776 280 149 279.776 149 279.5C149 279.224 148.776 279 148.5 279L91 279H90H33.5C33.2239 279 33 279.224 33 279.5C33 279.776 33.2239 280 33.5 280L86 280C88.2091 280 90 281.791 90 284L90 344.5C90 344.776 90.2239 345 90.5 345C90.7761 345 91 344.776 91 344.5L91 284Z" fill="currentColor"/>
<defs>
<clipPath id="clip0_1_506">
<rect width="24" height="24" fill="white" transform="translate(78)"/>
</clipPath>
</defs>
</svg>
