<svg width="38" height="38" viewBox="0 0 38 38" fill="none" xmlns="http://www.w3.org/2000/svg">
<circle cx="19" cy="19" r="18.5" stroke="currentColor"/>
<path fill-rule="evenodd" clip-rule="evenodd" d="M8.51453 34.7705C9.5676 34.0358 10.8318 33.5454 12.0226 33.0835C13.8143 32.3885 15.4398 31.758 15.9299 30.4566C15.9678 30.0447 15.9856 29.7986 15.9939 29.6002C13.0611 29.2876 11.0135 28.5876 11.0041 27.7732H11.0088C11.7859 26.9595 11.8304 25.024 11.8828 22.7437C11.9937 17.9134 12.1403 11.5362 19.3615 10.9989H19.352C20.2851 10.9469 21.2067 11.2213 21.9542 11.7736C27.0617 11.5868 27.0595 17.5511 27.0577 22.2918C27.0568 24.8354 27.0559 27.0267 27.8446 27.7266C27.8446 27.7278 27.8446 27.7293 27.8446 27.731C27.8445 27.746 27.8442 27.7744 27.8517 27.7744C27.8517 28.6062 25.7318 29.3191 22.7114 29.6236C22.7183 29.9039 22.7321 30.1839 22.7529 30.4636C23.2429 31.7603 24.8603 32.3889 26.6433 33.0819C27.7514 33.5125 28.9236 33.9681 29.9289 34.6244C26.8595 36.7528 23.1328 38 19.1148 38C15.1896 38 11.5425 36.8098 8.51453 34.7705Z" fill="currentColor" />
</svg>

