<svg width="24" height="24" viewBox="0 0 24 24" fill="none" xmlns="http://www.w3.org/2000/svg">
<g clip-path="url(#clip0_1_4255)">
<path d="M10 13.9999C10.3259 14.3325 10.7148 14.5967 11.1441 14.7771C11.5734 14.9575 12.0344 15.0504 12.5 15.0504C12.9656 15.0504 13.4266 14.9575 13.8559 14.7771C14.2852 14.5967 14.6741 14.3325 15 13.9999L19 9.99989C19.663 9.33685 20.0355 8.43757 20.0355 7.49989C20.0355 6.56221 19.663 5.66293 19 4.99989C18.337 4.33685 17.4377 3.96436 16.5 3.96436C15.5623 3.96436 14.663 4.33685 14 4.99989L13.5 5.49989" stroke="currentColor" stroke-width="1.5" stroke-linecap="round" stroke-linejoin="round"/>
<path d="M14 10.0002C13.6741 9.66762 13.2852 9.40339 12.8559 9.22301C12.4266 9.04262 11.9656 8.94971 11.5 8.94971C11.0344 8.94971 10.5734 9.04262 10.1441 9.22301C9.71486 9.40339 9.32589 9.66762 9.00001 10.0002L5.00001 14.0002C4.33697 14.6633 3.96448 15.5625 3.96448 16.5002C3.96448 17.4379 4.33697 18.3372 5.00001 19.0002C5.66305 19.6633 6.56233 20.0358 7.50001 20.0358C8.43769 20.0358 9.33697 19.6633 10 19.0002L10.5 18.5002" stroke="currentColor" stroke-width="1.5" stroke-linecap="round" stroke-linejoin="round"/>
</g>
<defs>
<clipPath id="clip0_1_4255">
<rect width="24" height="24" fill="currentColor"/>
</clipPath>
</defs>
</svg>
