<svg width="38" height="38" viewBox="0 0 38 38" fill="none" xmlns="http://www.w3.org/2000/svg">
  <circle cx="19" cy="19" r="18.5" stroke="currentColor"/>
  <path fill-rule="evenodd" clip-rule="evenodd" d="M7.44897 34.0869C8.6211 33.1455 10.1411 32.5732 11.5603 32.0388C13.4145 31.3406 15.0964 30.7073 15.6052 29.4005L15.5991 29.495C15.677 28.4978 15.7006 27.4974 15.6697 26.4978C14.7307 25.5878 14.1408 24.4003 13.996 23.1285C13.5838 23.0959 12.9387 22.7101 12.7424 21.194C12.6831 20.9293 12.7038 20.6539 12.8019 20.4001C12.9001 20.1462 13.0717 19.9243 13.2967 19.7603C11.9031 14.6095 12.6718 10.112 19.0465 10C20.6399 10 21.8654 10.4083 22.3441 11.2133C26.9963 11.8317 25.6003 17.8237 24.9279 19.7603L24.9315 19.7627C25.1547 19.9251 25.3253 20.1448 25.4234 20.3963C25.5215 20.6479 25.5431 20.9209 25.4858 21.1837C25.2958 22.7097 24.644 23.0947 24.2311 23.1273L24.2286 23.1518C24.0932 24.4097 23.5215 25.5878 22.6048 26.4978L22.606 26.4547C22.5729 27.437 22.594 28.4203 22.6694 29.4005H22.6682C23.1759 30.7072 24.8508 31.3405 26.6972 32.0387C28.0628 32.5551 29.5221 33.1069 30.6724 33.9928C27.4515 36.504 23.4004 38 18.9998 38C14.6545 38 10.6499 36.5413 7.44897 34.0869Z" fill="currentColor"/>
</svg>

